# xmcd CD database file
#
# Track frame offsets:
#	150
#	15580
#	33545
#	52527
#	67619
#	91246
#	105746
#	123435
#	141263
#	154111
#	169301
#	183222
#
# Disc length: 2625 seconds
#
# Revision: 1
# Processed by: cddbd v1.5.1PL0 Copyright (c) Steve Scherf et al.
# Submitted via: CDex 1.40Release
#
DISCID=8e0a3f0c
DTITLE=Richard Dobson - A river will do
DYEAR=2003
DGENRE=Country
TTITLE0=A river will do
TTITLE1=nothing holy in the holy land
TTITLE2=houston town
TTITLE3=down on the trinity river
TTITLE4=the hills of kosovo
TTITLE5=a river runs through it
TTITLE6=tengo gue volar
TTITLE7=million to one
TTITLE8=homemade kites
TTITLE9=kathleen
TTITLE10=at the end of the day
TTITLE11=texas is one song away
EXTD=YEAR: 2003 ID3G: 2
EXTT0=
EXTT1=
EXTT2=
EXTT3=
EXTT4=
EXTT5=
EXTT6=
EXTT7=
EXTT8=
EXTT9=
EXTT10=
EXTT11=
PLAYORDER=
